<svg width="27" height="27" viewBox="0 0 27 27" fill="none" xmlns="http://www.w3.org/2000/svg">
<g filter="url(#filter0_d_5902_20008)">
<path fill-rule="evenodd" clip-rule="evenodd" d="M4.75 10C4.75 5.16751 8.66751 1.25 13.5 1.25C18.3325 1.25 22.25 5.16751 22.25 10C22.25 14.8325 18.3325 18.75 13.5 18.75C8.66751 18.75 4.75 14.8325 4.75 10ZM13.5 14.6875C14.0178 14.6875 14.4375 14.2678 14.4375 13.75V10C14.4375 9.48223 14.0178 9.0625 13.5 9.0625C12.9822 9.0625 12.5625 9.48223 12.5625 10V13.75C12.5625 14.2678 12.9822 14.6875 13.5 14.6875ZM13.5 5.3125C14.1904 5.3125 14.75 5.87214 14.75 6.5625C14.75 7.25286 14.1904 7.8125 13.5 7.8125C12.8096 7.8125 12.25 7.25286 12.25 6.5625C12.25 5.87214 12.8096 5.3125 13.5 5.3125Z" fill="#907FF0"/>
</g>
<defs>
<filter id="filter0_d_5902_20008" x="0.75" y="1.25" width="25.5" height="25.5" filterUnits="userSpaceOnUse" color-interpolation-filters="sRGB">
<feFlood flood-opacity="0" result="BackgroundImageFix"/>
<feColorMatrix in="SourceAlpha" type="matrix" values="0 0 0 0 0 0 0 0 0 0 0 0 0 0 0 0 0 0 127 0" result="hardAlpha"/>
<feOffset dy="4"/>
<feGaussianBlur stdDeviation="2"/>
<feComposite in2="hardAlpha" operator="out"/>
<feColorMatrix type="matrix" values="0 0 0 0 0 0 0 0 0 0 0 0 0 0 0 0 0 0 0.25 0"/>
<feBlend mode="normal" in2="BackgroundImageFix" result="effect1_dropShadow_5902_20008"/>
<feBlend mode="normal" in="SourceGraphic" in2="effect1_dropShadow_5902_20008" result="shape"/>
</filter>
</defs>
</svg>
